<?xml version="1.0" encoding="iso-8859-1"?>
<!-- Generator: Adobe Illustrator 19.0.0, SVG Export Plug-In . SVG Version: 6.00 Build 0)  -->
<svg version="1.1" id="Capa_1" xmlns="http://www.w3.org/2000/svg" xmlns:xlink="http://www.w3.org/1999/xlink" x="0px" y="0px"
	 viewBox="0 0 512.001 512.001" style="enable-background:new 0 0 512.001 512.001;" xml:space="preserve">
<path style="fill:#C1B5C6;" d="M103.528,231.137v162.288c0,2.918,3.016,4.86,5.672,3.652l347.415-157.915L103.528,231.137z"/>
<path style="fill:#D0C7D4;" d="M104.367,395.878c1.082,1.39,3.038,2.015,4.833,1.2l347.415-157.916l-320.989,16.049L104.367,395.878
	z"/>
<g>
	<path style="fill:#EFECF0;" d="M135.627,255.211l115.817,108.096c2.68,2.501,6.714,2.869,9.801,0.893l195.371-125.037
		L135.627,255.211z"/>
	<path style="fill:#EFECF0;" d="M103.528,231.137l-70.816-70.816c-2.813-2.813-0.259-7.562,3.638-6.769l420.265,85.61
		L103.528,231.137z"/>
</g>
<path style="fill:#FF97A4;" d="M474.42,351.814c-7.644-5.209-34.119-18.774-67.447,13.516
	c-33.328-32.288-59.803-18.725-67.447-13.516c-22.131,15.082-28.86,48.11-15.32,75.19c24.463,48.926,77.963,67.229,80.229,67.984
	c1.638,0.546,3.438,0.546,5.076,0c2.266-0.755,55.766-19.059,80.229-67.984C503.28,399.924,496.55,366.896,474.42,351.814z"/>
<path style="fill:#FF7D8D;" d="M348.303,425.977c-13.54-27.079-6.811-60.107,15.32-75.19c2.107-1.436,5.65-3.508,10.371-5.078
	c-17.071-3.928-29.595,2.784-34.466,6.104c-22.131,15.082-28.86,48.11-15.32,75.19c24.463,48.926,77.963,67.229,80.229,67.984
	c1.638,0.546,3.438,0.546,5.076,0c0.586-0.196,4.604-1.568,10.656-4.337C403.709,483.446,367.275,463.923,348.303,425.977z"/>
<path style="fill:#FF97A4;" d="M212.591,7.305c-7.644-5.209-34.118-18.774-67.447,13.516C111.816-11.469,85.341,2.094,77.697,7.305
	c-22.13,15.082-28.86,48.11-15.32,75.19c24.463,48.927,77.964,67.229,80.229,67.984c1.638,0.546,3.437,0.546,5.076,0
	c2.265-0.755,55.766-19.058,80.229-67.984C241.451,55.415,234.722,22.387,212.591,7.305z"/>
<path style="fill:#FF7D8D;" d="M86.786,80.914c-13.54-27.079-6.81-60.107,15.32-75.19c1.942-1.323,5.101-3.185,9.277-4.698
	c-16.671-3.55-28.888,3.008-33.685,6.277C55.567,22.387,48.837,55.415,62.377,82.494c24.463,48.927,77.964,67.229,80.229,67.984
	c1.638,0.545,3.438,0.546,5.076,0c0.611-0.204,4.944-1.684,11.424-4.691C142.874,138.745,105.935,119.213,86.786,80.914z"/>
<path style="fill:#FE5578;" d="M106.943,426.814c-9.195-6.266-23.759-7.565-38.945,5.494c-15.187-13.059-29.752-11.758-38.945-5.494
	c-13.579,9.255-17.789,29.356-9.586,45.763c14.048,28.098,44.695,38.582,45.993,39.015c1.638,0.546,3.438,0.546,5.076,0
	c1.298-0.433,31.943-10.918,45.993-39.015C124.731,456.169,120.521,436.067,106.943,426.814z"/>
<path style="fill:#FE3F67;" d="M80.376,505.071c-1.298-0.433-31.943-10.918-45.993-39.015c-7.636-15.272-4.512-33.74,6.906-43.686
	c-4.658,0.474-8.819,2.115-12.237,4.444c-13.579,9.255-17.789,29.356-9.586,45.763c14.048,28.098,44.695,38.582,45.993,39.015
	c1.638,0.546,3.438,0.546,5.076,0c0.535-0.179,6.056-2.069,13.34-6.188C82.702,505.543,81.501,505.446,80.376,505.071z"/>
<path style="fill:#FE5578;" d="M443.982,81.751c-9.195-6.267-23.759-7.565-38.945,5.494c-15.186-13.059-29.752-11.758-38.945-5.494
	c-13.579,9.255-17.789,29.356-9.586,45.763c14.048,28.098,44.695,38.582,45.993,39.015c1.638,0.546,3.438,0.546,5.076,0
	c1.298-0.433,31.943-10.918,45.993-39.015C461.769,111.106,457.559,91.004,443.982,81.751z"/>
<path style="fill:#FE3F67;" d="M418.519,160.008c-1.298-0.433-31.943-10.918-45.993-39.015c-7.661-15.32-4.494-33.859,7.015-43.783
	c-5.15,0.293-9.738,2.011-13.449,4.54c-13.579,9.255-17.789,29.356-9.586,45.763c14.048,28.098,44.695,38.582,45.993,39.015
	c1.638,0.546,3.438,0.546,5.076,0c0.533-0.178,6.003-2.049,13.239-6.13C420.035,160.374,419.259,160.255,418.519,160.008z"/>
<g>
</g>
<g>
</g>
<g>
</g>
<g>
</g>
<g>
</g>
<g>
</g>
<g>
</g>
<g>
</g>
<g>
</g>
<g>
</g>
<g>
</g>
<g>
</g>
<g>
</g>
<g>
</g>
<g>
</g>
</svg>
