<?xml version="1.0" encoding="iso-8859-1"?>
<!-- Generator: Adobe Illustrator 19.0.0, SVG Export Plug-In . SVG Version: 6.00 Build 0)  -->
<svg version="1.1" id="Layer_1" xmlns="http://www.w3.org/2000/svg" xmlns:xlink="http://www.w3.org/1999/xlink" x="0px" y="0px"
	 viewBox="0 0 512.001 512.001" style="enable-background:new 0 0 512.001 512.001;" xml:space="preserve">
<path style="fill:#AADDE6;" d="M418.02,477.732L297.029,213.891h-81.883L93.98,477.732c-3.433,7.488-2.82,16.208,1.628,23.143
	c4.449,6.934,12.121,11.126,20.358,11.126h280.068c8.237,0,15.909-4.193,20.358-11.126
	C420.841,493.94,421.455,485.22,418.02,477.732z"/>
<path style="fill:#8DCCD3;" d="M206.416,219.124c-10.687,0-19.35-8.663-19.35-19.35s8.663-19.35,19.35-19.35h99.168
	c10.687,0,19.35,8.663,19.35,19.35c0,10.688-8.663,19.35-19.35,19.35H206.416z"/>
<path style="opacity:0.1;enable-background:new    ;" d="M122.407,500.874c-4.449-6.934-5.061-15.654-1.628-23.143l118.764-258.608
	h-6.327c-10.687,0-19.35-8.663-19.35-19.35c0-10.687,8.663-19.35,19.35-19.35h-26.799c-10.687,0-19.35,8.663-19.35,19.35
	c0,10.688,8.663,19.35,19.35,19.35h6.327L93.98,477.732c-3.433,7.488-2.82,16.208,1.628,23.143
	c4.449,6.934,12.121,11.126,20.358,11.126h26.799C134.528,512.001,126.856,507.808,122.407,500.874z"/>
<path style="fill:#E84731;" d="M124.399,487.813c-1.843,0-3.558-0.939-4.553-2.488c-0.994-1.551-1.132-3.502-0.364-5.177
	l63.344-138.142c0.882-1.924,2.803-3.155,4.917-3.155h136.515c2.115,0,4.036,1.231,4.917,3.155l63.344,138.142
	c0.769,1.675,0.631,3.625-0.364,5.177c-0.995,1.55-2.712,2.488-4.555,2.488L124.399,487.813L124.399,487.813z"/>
<path style="opacity:0.1;enable-background:new    ;" d="M142.158,485.325c-0.995-1.551-1.133-3.502-0.364-5.177l63.344-138.142
	c0.882-1.924,2.803-3.155,4.917-3.155h-22.312c-2.115,0-4.036,1.231-4.917,3.155l-63.344,138.142
	c-0.768,1.675-0.63,3.625,0.364,5.177c0.995,1.55,2.71,2.488,4.553,2.488h22.312C144.869,487.813,143.153,486.875,142.158,485.325z"
	/>
<g>
	<path style="fill:#FFFFFF;" d="M247.237,423.08h-1.29c-4.482,0-8.116-3.634-8.116-8.116s3.634-8.115,8.116-8.115h1.29
		c4.482,0,8.116,3.633,8.116,8.115S251.719,423.08,247.237,423.08z"/>
	<path style="fill:#FFFFFF;" d="M276.939,443.667h-1.291c-4.482,0-8.116-3.634-8.116-8.116c0-4.482,3.634-8.115,8.116-8.115h1.291
		c4.482,0,8.116,3.633,8.116,8.115C285.054,440.034,281.421,443.667,276.939,443.667z"/>
	<path style="fill:#FFFFFF;" d="M284.504,404.016h-1.291c-4.482,0-8.116-3.634-8.116-8.116c0-4.481,3.634-8.115,8.116-8.115h1.291
		c4.481,0,8.116,3.634,8.116,8.115C292.619,400.384,288.985,404.016,284.504,404.016z"/>
	<path style="fill:#FFFFFF;" d="M228.789,379.829h-1.292c-4.481,0-8.116-3.633-8.116-8.115s3.634-8.116,8.116-8.116h1.292
		c4.481,0,8.116,3.634,8.116,8.116S233.271,379.829,228.789,379.829z"/>
	<path style="fill:#FFFFFF;" d="M249.819,468.113h-1.29c-4.482,0-8.116-3.633-8.116-8.115c0-4.482,3.634-8.116,8.116-8.116h1.29
		c4.482,0,8.116,3.634,8.116,8.116C257.935,464.48,254.301,468.113,249.819,468.113z"/>
</g>
<path style="fill:#E84731;" d="M256.001,152.817c-1.593,0-3.12-0.634-4.244-1.757l-41.41-41.448
	c-5.855-5.853-9.079-13.638-9.079-21.917c0-8.279,3.224-16.065,9.079-21.918c5.854-5.853,13.637-9.078,21.918-9.078
	c8.28,0,16.064,3.224,21.918,9.078l1.82,1.821l1.819-1.821c5.853-5.853,13.636-9.078,21.918-9.078
	c8.279,0,16.061,3.224,21.917,9.078c5.853,5.853,9.08,13.638,9.08,21.918c0,8.278-3.227,16.064-9.08,21.917l-41.409,41.448
	C259.119,152.184,257.592,152.817,256.001,152.817z"/>
<path style="fill:#FFC529;" d="M201.659,27.588c-9.804,6.657-15.83,12.678-22.49,22.474c-0.973,1.432-3.07,1.432-4.044,0
	c-6.661-9.796-12.687-15.817-22.49-22.474c-1.432-0.972-1.432-3.068,0-4.041c9.804-6.656,15.83-12.676,22.49-22.474
	c0.973-1.432,3.07-1.432,4.044,0c6.661,9.797,12.686,15.818,22.49,22.474C203.091,24.52,203.091,26.617,201.659,27.588z"/>
<g>
	<circle style="fill:#FFFFFF;" cx="254.663" cy="269.831" r="18.066"/>
	<circle style="fill:#FFFFFF;" cx="289.834" cy="304.52" r="12.703"/>
</g>
<g>
	<path style="fill:#FFC529;" d="M332.889,57.976l-15.314-15.302c-0.951-0.95-0.951-2.492,0-3.444l15.311-15.299
		c0.95-0.949,2.49-0.949,3.441,0l15.312,15.3c0.951,0.95,0.951,2.492,0,3.444l-15.31,15.301
		C335.379,58.926,333.84,58.926,332.889,57.976z"/>
	<path style="fill:#FFC529;" d="M155.453,142.529l-15.314-15.302c-0.951-0.95-0.951-2.492,0-3.444l15.311-15.299
		c0.95-0.949,2.49-0.949,3.441,0l15.313,15.299c0.951,0.95,0.951,2.492,0,3.444l-15.31,15.301
		C157.944,143.478,156.403,143.478,155.453,142.529z"/>
</g>
<path style="opacity:0.1;enable-background:new    ;" d="M232.618,98.188c-5.854-5.853-9.079-13.638-9.079-21.918
	c0-7.192,2.436-14.011,6.913-19.515c-7.597,0.435-14.68,3.598-20.106,9.022c-5.855,5.853-9.079,13.638-9.079,21.918
	c0,8.278,3.224,16.064,9.079,21.917l41.41,41.448c1.126,1.123,2.651,1.757,4.244,1.757c1.592,0,3.119-0.634,4.244-1.757
	l12.599-12.61L232.618,98.188z"/>
<g>
</g>
<g>
</g>
<g>
</g>
<g>
</g>
<g>
</g>
<g>
</g>
<g>
</g>
<g>
</g>
<g>
</g>
<g>
</g>
<g>
</g>
<g>
</g>
<g>
</g>
<g>
</g>
<g>
</g>
</svg>
